<svg width="15" height="15" viewBox="0 0 15 15" fill="none" xmlns="http://www.w3.org/2000/svg">
<path fill-rule="evenodd" clip-rule="evenodd" d="M13.5 10.5853C13.5 10.9315 13.2968 11.2396 12.993 11.3523L8.25 13.1102V3.72311V3.57959L12.507 2.00168C12.9937 1.82087 13.5 2.21169 13.5 2.76874V10.5853ZM6.75 3.72311V13.1102L2.007 11.3523C1.70325 11.2396 1.5 10.9315 1.5 10.5853V2.76874C1.5 2.21169 2.00625 1.82087 2.493 2.00168L6.75 3.57959V3.72311ZM13.0028 0.0930356L7.74825 2.08771C7.58775 2.14853 7.41225 2.14853 7.25175 2.08771L1.99725 0.0930356C1.0215 -0.27752 0 0.504944 0 1.6231V11.144C0 11.8397 0.41025 12.4584 1.02 12.6806L7.26 14.9574C7.416 15.0142 7.584 15.0142 7.74 14.9574L13.98 12.6806C14.5897 12.4584 15 11.8397 15 11.144V1.6231C15 0.504944 13.9785 -0.27752 13.0028 0.0930356Z" fill="#B8BCCA"/>
</svg>
