<svg width="16" height="16" viewBox="0 0 16 16" fill="none" xmlns="http://www.w3.org/2000/svg">
<path d="M8.17599 9.1328L11.833 5.4758C11.8995 5.40272 11.9801 5.34372 12.0699 5.30232C12.1596 5.26092 12.2568 5.23794 12.3556 5.23476C12.4544 5.23157 12.5528 5.24824 12.6451 5.28378C12.7373 5.31932 12.8215 5.373 12.8926 5.44165C12.9637 5.5103 13.0203 5.59252 13.0591 5.68345C13.0979 5.77438 13.1181 5.87216 13.1184 5.97101C13.1187 6.06986 13.0992 6.16777 13.061 6.25894C13.0228 6.35012 12.9667 6.4327 12.896 6.5018L12.878 6.5198L8.69899 10.6998C8.5604 10.8384 8.37246 10.9162 8.17649 10.9162C7.98052 10.9162 7.79257 10.8384 7.65399 10.6998L3.47499 6.5208C3.40519 6.45337 3.34936 6.37285 3.31068 6.28384C3.272 6.19483 3.25123 6.09907 3.24956 6.00203C3.24789 5.90499 3.26535 5.80858 3.30094 5.71829C3.33653 5.628 3.38955 5.5456 3.45699 5.4758C3.52442 5.40601 3.60494 5.35017 3.69395 5.31149C3.78296 5.27282 3.87872 5.25205 3.97576 5.25038C4.0728 5.2487 4.16921 5.26616 4.2595 5.30175C4.34979 5.33734 4.43219 5.39037 4.50199 5.4578L4.51999 5.4758L8.17599 9.1328Z" fill="#12355B" stroke="#12355B" stroke-width="0.5"/>
</svg>
